<?xml version="1.0" encoding="UTF-8" standalone="no"?>
<svg
   xmlns:dc="http://purl.org/dc/elements/1.1/"
   xmlns:cc="http://creativecommons.org/ns#"
   xmlns:rdf="http://www.w3.org/1999/02/22-rdf-syntax-ns#"
   xmlns:svg="http://www.w3.org/2000/svg"
   xmlns="http://www.w3.org/2000/svg"
   xmlns:sodipodi="http://sodipodi.sourceforge.net/DTD/sodipodi-0.dtd"
   xmlns:inkscape="http://www.inkscape.org/namespaces/inkscape"
   width="219.20683pt"
   height="56.25pt"
   viewBox="0 0 219.20684 56.249997"
   version="1.2"
   id="svg117"
   sodipodi:docname="LBNLLogo_293_75.svg"
   inkscape:version="0.92.4 (5da689c313, 2019-01-14)">
  <metadata
     id="metadata123">
    <rdf:RDF>
      <cc:Work
         rdf:about="">
        <dc:format>image/svg+xml</dc:format>
        <dc:type
           rdf:resource="http://purl.org/dc/dcmitype/StillImage" />
        <dc:title></dc:title>
      </cc:Work>
    </rdf:RDF>
  </metadata>
  <defs
     id="defs121" />
  <sodipodi:namedview
     pagecolor="#ffffff"
     bordercolor="#666666"
     borderopacity="1"
     objecttolerance="10"
     gridtolerance="10"
     guidetolerance="10"
     inkscape:pageopacity="0"
     inkscape:pageshadow="2"
     inkscape:window-width="1920"
     inkscape:window-height="995"
     id="namedview119"
     showgrid="false"
     fit-margin-top="0"
     fit-margin-left="0"
     fit-margin-right="0"
     fit-margin-bottom="0"
     inkscape:zoom="1.1695125"
     inkscape:cx="333.2494"
     inkscape:cy="39.276912"
     inkscape:window-x="0"
     inkscape:window-y="28"
     inkscape:window-maximized="1"
     inkscape:current-layer="svg117" />
  <g
     id="surface252"
     transform="matrix(0.58992228,0,0,0.58992228,-11.872186,-11.867577)">
    <path
       style="fill:#021e28;fill-opacity:1;fill-rule:nonzero;stroke:none"
       d="m 136.55469,111.58203 c 0.55859,0 1.17578,-0.0586 1.61328,-0.41015 0.42578,-0.32032 0.63281,-0.80469 0.63281,-1.34766 0,-0.60156 -0.26562,-1.20313 -0.73437,-1.57031 -0.48438,-0.38282 -1.11719,-0.38282 -1.6875,-0.38282 h -2.28516 v 3.71094 z m -0.51172,-4.67578 c 0.6289,0 1.32031,0.0117 1.83203,-0.38281 0.41016,-0.29297 0.63281,-0.83594 0.63281,-1.32031 0,-0.60157 -0.23828,-1.02344 -0.75,-1.33204 -0.4414,-0.25 -0.89453,-0.25 -1.39453,-0.25 h -2.26953 v 3.28516 z m -3.21094,5.74609 v -10.05859 h 3.79688 c 0.77734,0 1.39453,0.0273 2.0664,0.46875 0.67578,0.45703 1.0586,1.16016 1.0586,1.98047 0,1.14453 -0.67579,1.99219 -1.77735,2.25781 v 0.0312 c 1.2461,0.26172 2.08203,1.26172 2.08203,2.55078 0,0.85157 -0.29297,1.59766 -0.96484,2.125 -0.76563,0.60157 -1.55469,0.64453 -2.48047,0.64453 h -3.78125"
       id="path2"
       inkscape:connector-curvature="0" />
    <path
       style="fill:#021e28;fill-opacity:1;fill-rule:nonzero;stroke:none"
       d="m 143.03125,105.20313 v 1.74609 h 0.0312 C 143.41406,105.9375 144.04687,105 145.24609,105 l 0.42578,0.0273 v 1.10157 h -0.23437 c -0.87891,0 -1.49609,0.42578 -1.92188,1.17187 -0.30468,0.54297 -0.36328,1.01172 -0.36328,1.59766 v 3.7539 h -1.14453 v -7.44921 h 1.02344"
       id="path4"
       inkscape:connector-curvature="0" />
    <path
       style="fill:#021e28;fill-opacity:1;fill-rule:nonzero;stroke:none"
       d="m 148.19141,112.65234 h -1.14063 v -7.44921 h 1.14063 z m 0.0625,-8.76562 h -1.26563 v -1.29297 h 1.26563 v 1.29297"
       id="path6"
       inkscape:connector-curvature="0" />
    <path
       style="fill:#021e28;fill-opacity:1;fill-rule:nonzero;stroke:none"
       d="m 151.69531,106.58203 h 0.0312 c 0.42188,-0.92187 1.25781,-1.5664 2.31641,-1.5664 0.89453,0 1.64062,0.3789 2.10937,1.15625 0.38282,0.63281 0.35547,1.6289 0.35547,2.35937 v 4.12109 h -1.14844 v -4.60546 c 0,-0.4375 0.0156,-0.9961 -0.20312,-1.375 -0.25,-0.42579 -0.79297,-0.67579 -1.27344,-0.67579 -0.60547,0 -1.14453,0.27735 -1.54297,0.7461 -0.48437,0.58984 -0.58593,1.26172 -0.58593,2.01172 v 3.89843 h -1.14454 v -7.44921 h 1.08594 v 1.3789"
       id="path8"
       inkscape:connector-curvature="0" />
    <path
       style="fill:#021e28;fill-opacity:1;fill-rule:nonzero;stroke:none"
       d="m 161.23828,109.20703 c 0.99609,0 1.65625,-0.66015 1.65625,-1.65625 0,-0.9375 -0.74609,-1.6289 -1.65625,-1.6289 -0.96875,0 -1.67187,0.6914 -1.67187,1.64453 0,1.01172 0.66015,1.64062 1.67187,1.64062 z m 0.14844,5.36719 c 0.55469,0 1.42187,-0.0859 1.91797,-0.32031 0.41015,-0.19141 0.64453,-0.42578 0.64453,-0.88282 0,-0.71875 -0.80469,-0.84765 -1.58203,-0.89453 -0.44141,-0.0273 -1.71485,-0.0117 -2.52344,-0.11718 -0.4375,0.20703 -0.80469,0.48437 -0.80469,1.01171 0,1.02735 1.58203,1.20313 2.34766,1.20313 z m -0.14844,-9.55859 c 0.51563,0 1.03906,0.10156 1.51172,0.32031 0.1875,-1.05469 0.70312,-1.28906 1.71484,-1.28906 l 0.29297,0.0156 0.0156,0.92188 h -0.11719 c -0.67578,0 -1.20313,0.0742 -1.32031,0.85156 0.45312,0.49609 0.71875,1.15625 0.71875,1.83203 0,0.73437 -0.39844,1.42187 -0.95313,1.86328 -0.54297,0.41016 -1.21875,0.57031 -1.89062,0.57031 -0.33985,0 -0.73438,-0.11718 -1.01563,-0.11718 -0.35156,0 -0.78906,0.30859 -0.78906,0.6875 0,0.35546 0.23437,0.55859 0.55859,0.63281 0.51172,0.11719 1.23047,0.0898 1.75782,0.11719 0.64453,0.0312 1.59765,0.043 2.18359,0.26562 0.69141,0.26172 1.14453,0.90625 1.14453,1.64063 0,1.89062 -2.24219,2.14062 -3.67969,2.14062 -0.6914,0 -1.54297,-0.0273 -2.1875,-0.29297 -0.71484,-0.29297 -1.27343,-0.82031 -1.27343,-1.64453 0,-0.77344 0.42578,-1.25781 1.1289,-1.50781 -0.42578,-0.28125 -0.71875,-0.61719 -0.71875,-1.17188 0,-0.73437 0.42578,-1.05859 1.02735,-1.33593 -0.63282,-0.5 -0.96875,-1.16016 -0.96875,-1.96485 0,-1.61328 1.36328,-2.53515 2.85937,-2.53515"
       id="path10"
       inkscape:connector-curvature="0" />
    <path
       style="fill:#021e28;fill-opacity:1;fill-rule:nonzero;stroke:none"
       d="m 167.61328,112.65234 h -1.14453 v -7.44921 h 1.14453 z m 0.0586,-8.76562 h -1.26171 v -1.29297 h 1.26171 v 1.29297"
       id="path12"
       inkscape:connector-curvature="0" />
    <path
       style="fill:#021e28;fill-opacity:1;fill-rule:nonzero;stroke:none"
       d="m 171.11719,106.58203 h 0.0273 c 0.42578,-0.92187 1.26172,-1.5664 2.32031,-1.5664 0.89063,0 1.64063,0.3789 2.10938,1.15625 0.38281,0.63281 0.35156,1.6289 0.35156,2.35937 v 4.12109 h -1.14453 v -4.60546 c 0,-0.4375 0.0156,-0.9961 -0.20313,-1.375 -0.25,-0.42579 -0.79296,-0.67579 -1.27734,-0.67579 -0.60156,0 -1.14453,0.27735 -1.53906,0.7461 -0.48438,0.58984 -0.58594,1.26172 -0.58594,2.01172 v 3.89843 h -1.14453 v -7.44921 h 1.08594 v 1.3789"
       id="path14"
       inkscape:connector-curvature="0" />
    <path
       style="fill:#021e28;fill-opacity:1;fill-rule:nonzero;stroke:none"
       d="m 180.66016,109.20703 c 0.99609,0 1.65625,-0.66015 1.65625,-1.65625 0,-0.9375 -0.75,-1.6289 -1.65625,-1.6289 -0.96875,0 -1.67188,0.6914 -1.67188,1.64453 0,1.01172 0.66016,1.64062 1.67188,1.64062 z m 0.14453,5.36719 c 0.55859,0 1.42187,-0.0859 1.92187,-0.32031 0.41016,-0.19141 0.64453,-0.42578 0.64453,-0.88282 0,-0.71875 -0.80468,-0.84765 -1.58203,-0.89453 -0.4414,-0.0273 -1.71875,-0.0117 -2.52344,-0.11718 -0.4414,0.20703 -0.80468,0.48437 -0.80468,1.01171 0,1.02735 1.58203,1.20313 2.34375,1.20313 z m -0.14453,-9.55859 c 0.51171,0 1.03906,0.10156 1.51171,0.32031 0.1875,-1.05469 0.69922,-1.28906 1.71485,-1.28906 l 0.29297,0.0156 0.0117,0.92188 h -0.11719 c -0.67188,0 -1.20313,0.0742 -1.31641,0.85156 0.45313,0.49609 0.71485,1.15625 0.71485,1.83203 0,0.73437 -0.39454,1.42187 -0.95313,1.86328 -0.53906,0.41016 -1.21484,0.57031 -1.89062,0.57031 -0.33594,0 -0.73047,-0.11718 -1.01172,-0.11718 -0.35157,0 -0.79297,0.30859 -0.79297,0.6875 0,0.35546 0.23828,0.55859 0.55859,0.63281 0.51563,0.11719 1.23047,0.0898 1.76172,0.11719 0.64453,0.0312 1.59766,0.043 2.18359,0.26562 0.6875,0.26172 1.14454,0.90625 1.14454,1.64063 0,1.89062 -2.2461,2.14062 -3.6836,2.14062 -0.6875,0 -1.53906,-0.0273 -2.18359,-0.29297 -0.71875,-0.29297 -1.27735,-0.82031 -1.27735,-1.64453 0,-0.77344 0.42969,-1.25781 1.13282,-1.50781 -0.42578,-0.28125 -0.71875,-0.61719 -0.71875,-1.17188 0,-0.73437 0.42187,-1.05859 1.02343,-1.33593 -0.6289,-0.5 -0.96484,-1.16016 -0.96484,-1.96485 0,-1.61328 1.36328,-2.53515 2.85938,-2.53515"
       id="path16"
       inkscape:connector-curvature="0" />
    <path
       style="fill:#021e28;fill-opacity:1;fill-rule:nonzero;stroke:none"
       d="m 191.07812,109.69141 c 0.41016,1.39453 1.57032,2.03906 2.97657,2.03906 0.60156,0 1.33593,-0.13281 1.80468,-0.5 0.38282,-0.29297 0.61719,-0.80469 0.61719,-1.28906 0,-1.01172 -0.83594,-1.42188 -1.71484,-1.64453 l -1.67188,-0.41016 c -0.67578,-0.16016 -1.29297,-0.32031 -1.82031,-0.80469 -0.52734,-0.46875 -0.82031,-1.16015 -0.82031,-1.86328 0,-1.9375 1.67187,-2.77344 3.41406,-2.77344 1.6875,0 3.03906,0.83594 3.57813,2.46485 l -1.14063,0.30859 c -0.22266,-1.10156 -1.39453,-1.77344 -2.46484,-1.77344 -0.95313,0 -2.15625,0.5 -2.15625,1.59766 0,1.12891 0.8789,1.37891 1.82031,1.59766 l 1.50781,0.36718 c 0.66016,0.14844 1.32031,0.33594 1.83594,0.77735 0.62891,0.51172 0.9375,1.20312 0.9375,1.99609 0,0.90625 -0.39844,1.73047 -1.12891,2.28516 -0.73437,0.55859 -1.71484,0.73437 -2.625,0.73437 -2.05468,0 -3.40234,-0.91015 -4.07812,-2.85937 l 1.1289,-0.25"
       id="path18"
       inkscape:connector-curvature="0" />
    <path
       style="fill:#021e28;fill-opacity:1;fill-rule:nonzero;stroke:none"
       d="m 205.16797,110.19141 c -0.26563,1.50781 -1.27735,2.60937 -2.875,2.60937 -2.21485,0 -3.16797,-1.92187 -3.16797,-3.87109 0,-1.9375 0.96875,-3.91406 3.18359,-3.91406 1.61328,0 2.60938,1.03906 2.85938,2.57812 l -1.05469,0.19141 c -0.10547,-0.98047 -0.70703,-1.80469 -1.77344,-1.80469 -1.55859,0 -1.99609,1.62891 -1.99609,2.875 0,1.20312 0.36719,2.96094 1.92187,2.96094 1.11329,0 1.65625,-0.80469 1.84766,-1.81641 l 1.05469,0.19141"
       id="path20"
       inkscape:connector-curvature="0" />
    <path
       style="fill:#021e28;fill-opacity:1;fill-rule:nonzero;stroke:none"
       d="m 208.21484,112.65234 h -1.14453 v -7.44921 h 1.14453 z m 0.0586,-8.76562 h -1.26172 v -1.29297 h 1.26172 v 1.29297"
       id="path22"
       inkscape:connector-curvature="0" />
    <path
       style="fill:#021e28;fill-opacity:1;fill-rule:nonzero;stroke:none"
       d="m 215.60156,108.16406 c 0.0156,-1.23047 -0.67187,-2.26953 -1.99219,-2.26953 -1.24609,0 -2.05468,1.09766 -2.09765,2.26953 z m 1.14453,2.44922 c -0.4375,1.36719 -1.74609,2.1875 -3.16797,2.1875 -2.25781,0 -3.41406,-1.78906 -3.41406,-3.87109 0,-2.05469 1.21485,-3.91406 3.44531,-3.91406 2.31641,0 3.3125,1.93359 3.25391,4 h -5.41016 c 0,0.58984 0.0312,1.1289 0.3086,1.6875 0.35156,0.70312 1.1289,1.1289 1.90625,1.1289 0.96875,0 1.67187,-0.55469 1.99219,-1.4375 l 1.08593,0.21875"
       id="path24"
       inkscape:connector-curvature="0" />
    <path
       style="fill:#021e28;fill-opacity:1;fill-rule:nonzero;stroke:none"
       d="m 219.85156,106.58203 h 0.0312 c 0.42578,-0.92187 1.26172,-1.5664 2.31641,-1.5664 0.89453,0 1.64062,0.3789 2.10937,1.15625 0.38282,0.63281 0.35157,1.6289 0.35157,2.35937 v 4.12109 h -1.14063 v -4.60546 c 0,-0.4375 0.0117,-0.9961 -0.20703,-1.375 -0.25,-0.42579 -0.79297,-0.67579 -1.27734,-0.67579 -0.59766,0 -1.14063,0.27735 -1.53907,0.7461 -0.48047,0.58984 -0.58593,1.26172 -0.58593,2.01172 v 3.89843 h -1.14454 v -7.44921 h 1.08594 v 1.3789"
       id="path26"
       inkscape:connector-curvature="0" />
    <path
       style="fill:#021e28;fill-opacity:1;fill-rule:nonzero;stroke:none"
       d="m 232.42969,110.19141 c -0.26563,1.50781 -1.27735,2.60937 -2.875,2.60937 -2.21094,0 -3.16407,-1.92187 -3.16407,-3.87109 0,-1.9375 0.96485,-3.91406 3.17969,-3.91406 1.61328,0 2.60938,1.03906 2.85938,2.57812 l -1.05469,0.19141 c -0.10156,-0.98047 -0.70313,-1.80469 -1.77344,-1.80469 -1.55469,0 -1.99609,1.62891 -1.99609,2.875 0,1.20312 0.36719,2.96094 1.92187,2.96094 1.11328,0 1.65625,-0.80469 1.84766,-1.81641 l 1.05469,0.19141"
       id="path28"
       inkscape:connector-curvature="0" />
    <path
       style="fill:#021e28;fill-opacity:1;fill-rule:nonzero;stroke:none"
       d="m 239.12891,108.16406 c 0.0156,-1.23047 -0.67579,-2.26953 -1.9961,-2.26953 -1.24609,0 -2.05078,1.09766 -2.09765,2.26953 z m 1.14453,2.44922 c -0.44141,1.36719 -1.7461,2.1875 -3.16797,2.1875 -2.25781,0 -3.41797,-1.78906 -3.41797,-3.87109 0,-2.05469 1.21875,-3.91406 3.44531,-3.91406 2.31641,0 3.31641,1.93359 3.25781,4 h -5.41015 c 0,0.58984 0.0273,1.1289 0.30469,1.6875 0.35156,0.70312 1.1289,1.1289 1.90625,1.1289 0.96875,0 1.67187,-0.55469 1.99609,-1.4375 l 1.08594,0.21875"
       id="path30"
       inkscape:connector-curvature="0" />
    <path
       style="fill:#021e28;fill-opacity:1;fill-rule:nonzero;stroke:none"
       d="m 247.65625,109.69141 c 0.41016,1.39453 1.57031,2.03906 2.97656,2.03906 0.60156,0 1.33594,-0.13281 1.80469,-0.5 0.37891,-0.29297 0.61719,-0.80469 0.61719,-1.28906 0,-1.01172 -0.83594,-1.42188 -1.71485,-1.64453 l -1.67578,-0.41016 c -0.67187,-0.16016 -1.28906,-0.32031 -1.8164,-0.80469 -0.52735,-0.46875 -0.82032,-1.16015 -0.82032,-1.86328 0,-1.9375 1.67188,-2.77344 3.41407,-2.77344 1.6875,0 3.03906,0.83594 3.57812,2.46485 l -1.14062,0.30859 c -0.22266,-1.10156 -1.39454,-1.77344 -2.46485,-1.77344 -0.95312,0 -2.15625,0.5 -2.15625,1.59766 0,1.12891 0.87891,1.37891 1.81641,1.59766 l 1.51172,0.36718 c 0.66015,0.14844 1.32031,0.33594 1.83593,0.77735 0.62891,0.51172 0.9375,1.20312 0.9375,1.99609 0,0.90625 -0.39843,1.73047 -1.1289,2.28516 -0.73438,0.55859 -1.71485,0.73437 -2.625,0.73437 -2.05469,0 -3.40235,-0.91015 -4.07813,-2.85937 l 1.12891,-0.25"
       id="path32"
       inkscape:connector-curvature="0" />
    <path
       style="fill:#021e28;fill-opacity:1;fill-rule:nonzero;stroke:none"
       d="m 257.52344,110.90625 c 0.32031,0.57422 0.95312,0.94141 1.625,0.94141 0.76172,0 1.36328,-0.39453 1.71484,-1.07032 0.30859,-0.58593 0.36719,-1.26171 0.36719,-1.90625 0,-0.70703 -0.0859,-1.4375 -0.46875,-2.03906 -0.35156,-0.54297 -0.96485,-0.8789 -1.61328,-0.8789 -0.71875,0 -1.36328,0.41015 -1.6836,1.05468 -0.28125,0.54297 -0.36718,1.26172 -0.36718,1.86328 0,0.67188 0.10156,1.44922 0.42578,2.03516 z m 1.71484,-5.89062 c 2.18359,0 3.26953,1.90234 3.26953,3.87109 0,2.08203 -1.20312,3.91406 -3.46094,3.91406 -2.23046,0 -3.22656,-1.96484 -3.22656,-3.92969 0,-2.0664 1.17188,-3.85546 3.41797,-3.85546"
       id="path34"
       inkscape:connector-curvature="0" />
    <path
       style="fill:#021e28;fill-opacity:1;fill-rule:nonzero;stroke:none"
       d="m 264.52734,112.65234 v -10.05859 h 1.14453 v 10.05859 h -1.14453"
       id="path36"
       inkscape:connector-curvature="0" />
    <path
       style="fill:#021e28;fill-opacity:1;fill-rule:nonzero;stroke:none"
       d="m 273.94141,112.65234 h -1.04297 v -1.48046 h -0.0312 c -0.36328,0.92578 -1.25782,1.6289 -2.28516,1.6289 -0.73437,0 -1.4375,-0.26562 -1.90625,-0.83594 -0.5,-0.61718 -0.58594,-1.46875 -0.58594,-2.23046 v -4.53125 h 1.14453 v 4.53125 c 0,0.42578 0.0274,0.98437 0.2461,1.36328 0.22265,0.41406 0.73437,0.70703 1.20312,0.70703 0.61719,0 1.14453,-0.28125 1.53907,-0.76563 0.45703,-0.55468 0.57421,-1.17187 0.57421,-1.875 v -3.96093 h 1.14454 v 7.44921"
       id="path38"
       inkscape:connector-curvature="0" />
    <path
       style="fill:#021e28;fill-opacity:1;fill-rule:nonzero;stroke:none"
       d="m 279.78516,112.71094 -1.09766,0.0898 c -1.62891,0 -2.11328,-0.95312 -2.11328,-2.43359 v -4.3125 h -1.31641 v -0.91016 h 1.31641 v -1.84765 l 1.14453,-0.11719 v 1.96484 h 1.66016 v 0.91016 h -1.66016 v 4.5039 c 0,0.86329 0.25,1.31641 1.1875,1.31641 l 0.87891,-0.0703 v 0.90625"
       id="path40"
       inkscape:connector-curvature="0" />
    <path
       style="fill:#021e28;fill-opacity:1;fill-rule:nonzero;stroke:none"
       d="m 282.45312,112.65234 h -1.14062 v -7.44921 h 1.14062 z m 0.0586,-8.76562 H 281.25 v -1.29297 h 1.26172 v 1.29297"
       id="path42"
       inkscape:connector-curvature="0" />
    <path
       style="fill:#021e28;fill-opacity:1;fill-rule:nonzero;stroke:none"
       d="m 286.17578,110.90625 c 0.32422,0.57422 0.95313,0.94141 1.62891,0.94141 0.76172,0 1.36328,-0.39453 1.71484,-1.07032 0.30859,-0.58593 0.36719,-1.26171 0.36719,-1.90625 0,-0.70703 -0.0859,-1.4375 -0.46875,-2.03906 -0.35156,-0.54297 -0.96875,-0.8789 -1.61328,-0.8789 -0.71875,0 -1.36328,0.41015 -1.6875,1.05468 -0.27735,0.54297 -0.36719,1.26172 -0.36719,1.86328 0,0.67188 0.10547,1.44922 0.42578,2.03516 z m 1.71875,-5.89062 c 2.18359,0 3.26563,1.90234 3.26563,3.87109 0,2.08203 -1.19922,3.91406 -3.46094,3.91406 -2.22656,0 -3.22266,-1.96484 -3.22266,-3.92969 0,-2.0664 1.17188,-3.85546 3.41797,-3.85546"
       id="path44"
       inkscape:connector-curvature="0" />
    <path
       style="fill:#021e28;fill-opacity:1;fill-rule:nonzero;stroke:none"
       d="m 294.09375,106.58203 h 0.0273 c 0.42578,-0.92187 1.26172,-1.5664 2.31641,-1.5664 0.89453,0 1.64062,0.3789 2.11328,1.15625 0.37891,0.63281 0.35156,1.6289 0.35156,2.35937 v 4.12109 h -1.14453 v -4.60546 c 0,-0.4375 0.0156,-0.9961 -0.20312,-1.375 -0.25,-0.42579 -0.79297,-0.67579 -1.27735,-0.67579 -0.60156,0 -1.14453,0.27735 -1.53906,0.7461 -0.48437,0.58984 -0.58594,1.26172 -0.58594,2.01172 v 3.89843 h -1.14453 v -7.44921 h 1.08594 v 1.3789"
       id="path46"
       inkscape:connector-curvature="0" />
    <path
       style="fill:#021e28;fill-opacity:1;fill-rule:nonzero;stroke:none"
       d="m 301.875,110.45313 c 0.16016,1.01171 1.34766,1.39453 2.24219,1.39453 0.79297,0 1.80468,-0.27735 1.80468,-1.23438 0,-0.78906 -0.80859,-1.00781 -1.45312,-1.125 l -1.21484,-0.22265 c -1.14454,-0.21875 -2.1836,-0.7461 -2.1836,-2.06641 0,-1.53906 1.41797,-2.18359 2.78516,-2.18359 1.33203,0 2.57812,0.49609 2.94531,1.875 l -1.05469,0.21875 c -0.29297,-0.82032 -1.05468,-1.17188 -1.90625,-1.17188 -0.67578,0 -1.58203,0.26563 -1.58203,1.08594 0,0.80469 0.67188,0.98047 1.33203,1.08594 l 1.08594,0.1875 c 0.54297,0.10546 1.10156,0.20703 1.55469,0.51562 0.58594,0.39453 0.89453,1.01172 0.89453,1.68359 0,1.6875 -1.64453,2.30469 -3.09375,2.30469 -1.45313,0 -2.89063,-0.60156 -3.26953,-2.1289 l 1.11328,-0.21875"
       id="path48"
       inkscape:connector-curvature="0" />
    <path
       style="fill:#021e28;fill-opacity:1;fill-rule:nonzero;stroke:none"
       d="m 317.16406,112.71094 -1.10156,0.0898 c -1.625,0 -2.11328,-0.95312 -2.11328,-2.43359 v -4.3125 h -1.31641 v -0.91016 h 1.31641 v -1.84765 l 1.14453,-0.11719 v 1.96484 h 1.66016 v 0.91016 h -1.66016 v 4.5039 c 0,0.86329 0.25,1.31641 1.1875,1.31641 l 0.88281,-0.0703 v 0.90625"
       id="path50"
       inkscape:connector-curvature="0" />
    <path
       style="fill:#021e28;fill-opacity:1;fill-rule:nonzero;stroke:none"
       d="m 319.81641,110.90625 c 0.32031,0.57422 0.95312,0.94141 1.625,0.94141 0.76171,0 1.36718,-0.39453 1.71484,-1.07032 0.3125,-0.58593 0.37109,-1.26171 0.37109,-1.90625 0,-0.70703 -0.0898,-1.4375 -0.47265,-2.03906 -0.35157,-0.54297 -0.96485,-0.8789 -1.61328,-0.8789 -0.71485,0 -1.36329,0.41015 -1.6836,1.05468 -0.28125,0.54297 -0.36719,1.26172 -0.36719,1.86328 0,0.67188 0.10157,1.44922 0.42579,2.03516 z m 1.71484,-5.89062 c 2.18359,0 3.26953,1.90234 3.26953,3.87109 0,2.08203 -1.20312,3.91406 -3.46094,3.91406 -2.23047,0 -3.22656,-1.96484 -3.22656,-3.92969 0,-2.0664 1.17188,-3.85546 3.41797,-3.85546"
       id="path52"
       inkscape:connector-curvature="0" />
    <path
       style="fill:#021e28;fill-opacity:1;fill-rule:nonzero;stroke:none"
       d="m 334.82422,112.71094 -1.09766,0.0898 c -1.6289,0 -2.11328,-0.95312 -2.11328,-2.43359 v -4.3125 h -1.32031 v -0.91016 h 1.32031 v -1.84765 l 1.14453,-0.11719 v 1.96484 h 1.65625 v 0.91016 h -1.65625 v 4.5039 c 0,0.86329 0.25,1.31641 1.1875,1.31641 l 0.87891,-0.0703 v 0.90625"
       id="path54"
       inkscape:connector-curvature="0" />
    <path
       style="fill:#021e28;fill-opacity:1;fill-rule:nonzero;stroke:none"
       d="m 340.90625,112.65234 v -4.33984 c 0,-0.45312 0,-1.03906 -0.16016,-1.48047 -0.20703,-0.55859 -0.73047,-0.8789 -1.33593,-0.8789 -0.58594,0 -1.14063,0.35156 -1.50782,0.78906 -0.51172,0.61719 -0.57422,1.30469 -0.57422,2.08594 v 3.82421 h -1.14062 v -10.05859 h 1.14062 v 3.98828 h 0.0469 c 0.46875,-0.99609 1.15625,-1.5664 2.31641,-1.5664 0.79296,0 1.53906,0.36328 1.96484,1.03906 0.45312,0.73437 0.39453,1.4375 0.39453,2.25781 v 4.33984 h -1.14453"
       id="path56"
       inkscape:connector-curvature="0" />
    <path
       style="fill:#021e28;fill-opacity:1;fill-rule:nonzero;stroke:none"
       d="m 349.27734,108.16406 c 0.0156,-1.23047 -0.67187,-2.26953 -1.99609,-2.26953 -1.24609,0 -2.05078,1.09766 -2.09375,2.26953 z m 1.14453,2.44922 c -0.4414,1.36719 -1.74609,2.1875 -3.16796,2.1875 -2.25782,0 -3.41407,-1.78906 -3.41407,-3.87109 0,-2.05469 1.21485,-3.91406 3.44141,-3.91406 2.32031,0 3.31641,1.93359 3.25781,4 h -5.41015 c 0,0.58984 0.0273,1.1289 0.30859,1.6875 0.35156,0.70312 1.12891,1.1289 1.90625,1.1289 0.96875,0 1.67187,-0.55469 1.99219,-1.4375 l 1.08593,0.21875"
       id="path58"
       inkscape:connector-curvature="0" />
    <path
       style="fill:#021e28;fill-opacity:1;fill-rule:nonzero;stroke:none"
       d="m 365.51953,112.65234 h -1.26172 l -2.18359,-7.80078 -2.05469,7.80078 h -1.27344 l -2.55078,-10.05859 h 1.28906 l 2.00782,8.15234 h 0.0312 l 2.125,-8.15234 h 1.01172 l 2.28515,8.15234 h 0.0312 l 1.86328,-8.15234 h 1.09766 l -2.41797,10.05859"
       id="path60"
       inkscape:connector-curvature="0" />
    <path
       style="fill:#021e28;fill-opacity:1;fill-rule:nonzero;stroke:none"
       d="m 370.01562,110.90625 c 0.32422,0.57422 0.95313,0.94141 1.62891,0.94141 0.76172,0 1.36328,-0.39453 1.71484,-1.07032 0.3086,-0.58593 0.36719,-1.26171 0.36719,-1.90625 0,-0.70703 -0.0898,-1.4375 -0.46875,-2.03906 -0.35156,-0.54297 -0.96875,-0.8789 -1.61328,-0.8789 -0.71875,0 -1.36328,0.41015 -1.6875,1.05468 -0.27734,0.54297 -0.36719,1.26172 -0.36719,1.86328 0,0.67188 0.10547,1.44922 0.42578,2.03516 z m 1.71485,-5.89062 c 2.1875,0 3.27344,1.90234 3.27344,3.87109 0,2.08203 -1.20313,3.91406 -3.46485,3.91406 -2.22656,0 -3.22265,-1.96484 -3.22265,-3.92969 0,-2.0664 1.17187,-3.85546 3.41406,-3.85546"
       id="path62"
       inkscape:connector-curvature="0" />
    <path
       style="fill:#021e28;fill-opacity:1;fill-rule:nonzero;stroke:none"
       d="m 377.91406,105.20313 v 1.74609 h 0.0312 C 378.29687,105.9375 378.92969,105 380.13281,105 l 0.42188,0.0273 v 1.10157 h -0.23438 c -0.8789,0 -1.49609,0.42578 -1.91797,1.17187 -0.30859,0.54297 -0.37109,1.01172 -0.37109,1.59766 v 3.7539 h -1.14063 v -7.44921 h 1.02344"
       id="path64"
       inkscape:connector-curvature="0" />
    <path
       style="fill:#021e28;fill-opacity:1;fill-rule:nonzero;stroke:none"
       d="m 382.22656,112.65234 v -10.05859 h 1.14063 v 10.05859 h -1.14063"
       id="path66"
       inkscape:connector-curvature="0" />
    <path
       style="fill:#021e28;fill-opacity:1;fill-rule:nonzero;stroke:none"
       d="m 390.56641,108.23828 c 0,-0.51172 -0.0742,-1.03906 -0.37891,-1.48047 -0.36719,-0.52734 -1.02734,-0.83593 -1.67188,-0.83593 -0.64843,0 -1.20312,0.39843 -1.51171,0.9414 -0.33985,0.58203 -0.44141,1.25781 -0.44141,1.9336 0,1.21875 0.32422,3.05078 1.92187,3.05078 0.66016,0 1.26172,-0.36719 1.64454,-0.89453 0.35156,-0.48438 0.4375,-0.96875 0.4375,-1.52344 z m 0,-5.64453 h 1.14453 v 10.05859 h -1.04297 v -1.3164 h -0.0274 c -0.46875,0.9375 -1.23437,1.46484 -2.33203,1.46484 -0.98437,0 -1.73047,-0.46875 -2.27343,-1.26172 -0.51172,-0.76172 -0.70313,-1.69922 -0.70313,-2.60937 0,-1.86328 0.92578,-3.91406 3.07813,-3.91406 0.95312,0 1.6289,0.45312 2.15625,1.19921 v -3.62109"
       id="path68"
       inkscape:connector-curvature="0" />
    <path
       style="fill:#021e28;fill-opacity:1;fill-rule:nonzero;stroke:none"
       d="m 20.125,20.117188 h 100 V 91.0625 h -100 V 20.117188"
       id="path70"
       inkscape:connector-curvature="0" />
    <path
       style="fill:#ffffff;fill-opacity:1;fill-rule:nonzero;stroke:none"
       d="m 106.91797,91.085938 h -1.90625 V 57.394531 l -5.00781,-6.808593 -5.007816,6.808593 v 33.691407 h -1.90625 V 56.765625 l 6.914066,-9.402344 6.91406,9.402344 v 34.320313"
       id="path72"
       inkscape:connector-curvature="0" />
    <path
       style="fill:#ffffff;fill-opacity:1;fill-rule:nonzero;stroke:none"
       d="m 33.195312,65.535156 h 3.375 v -1.265625 h -6.496093 v 4.644531 h 3.121093 v -3.378906"
       id="path74"
       inkscape:connector-curvature="0" />
    <path
       style="fill:#ffffff;fill-opacity:1;fill-rule:nonzero;stroke:none"
       d="m 42.144531,65.535156 h 3.375 v -1.265625 h -6.492187 v 4.644531 h 3.117187 v -3.378906"
       id="path76"
       inkscape:connector-curvature="0" />
    <path
       style="fill:#ffffff;fill-opacity:1;fill-rule:nonzero;stroke:none"
       d="m 51.09375,65.535156 h 3.375 v -1.265625 h -6.492188 v 4.644531 h 3.117188 v -3.378906"
       id="path78"
       inkscape:connector-curvature="0" />
    <path
       style="fill:#ffffff;fill-opacity:1;fill-rule:nonzero;stroke:none"
       d="m 60.042969,65.535156 h 3.375 v -1.265625 h -6.492188 v 4.644531 h 3.117188 v -3.378906"
       id="path80"
       inkscape:connector-curvature="0" />
    <path
       style="fill:#ffffff;fill-opacity:1;fill-rule:nonzero;stroke:none"
       d="m 68.992188,65.535156 h 3.375 V 64.269531 H 65.875 v 4.644531 h 3.117188 v -3.378906"
       id="path82"
       inkscape:connector-curvature="0" />
    <path
       style="fill:#ffffff;fill-opacity:1;fill-rule:nonzero;stroke:none"
       d="m 77.945312,65.535156 h 3.375 v -1.265625 h -6.496093 v 4.644531 h 3.121093 v -3.378906"
       id="path84"
       inkscape:connector-curvature="0" />
    <path
       style="fill:#ffffff;fill-opacity:1;fill-rule:nonzero;stroke:none"
       d="m 54.808594,37.015625 -0.847656,-0.488281 -0.867188,0.496094 -7.070312,3.828124 v 2.636719 l 7.9375,-4.296875 7.933593,4.296875 v -2.636719 l -7.085937,-3.835937"
       id="path86"
       inkscape:connector-curvature="0" />
    <path
       style="fill:#ffffff;fill-opacity:1;fill-rule:nonzero;stroke:none"
       d="M 82.15625,56.929688 C 74.332031,49.394531 64.0625,45.246094 53.179688,45.246094 c -8.542969,0 -16.757813,2.5625 -23.757813,7.40625 l -1.03125,0.71875 v 2.832031 l 2.355469,-1.644531 c 6.605468,-4.574219 14.363281,-6.992188 22.433594,-6.992188 10.429687,0 20.261718,4.03125 27.6875,11.347656 0.21875,0.214844 0.511718,0.335938 0.816406,0.335938 h 4.109375 v 31.835938 h 2.320312 V 56.929688 H 82.15625"
       id="path88"
       inkscape:connector-curvature="0" />
    <path
       style="fill:#ffffff;fill-opacity:1;fill-rule:nonzero;stroke:none"
       d="M 99.375,68.914062 H 97.296875 V 61 H 99.375 v 7.914062"
       id="path90"
       inkscape:connector-curvature="0" />
    <path
       style="fill:#ffffff;fill-opacity:1;fill-rule:nonzero;stroke:none"
       d="m 102.91406,68.914062 h -2.07812 V 61 h 2.07812 v 7.914062"
       id="path92"
       inkscape:connector-curvature="0" />
    <path
       style="fill:#021e28;fill-opacity:1;fill-rule:nonzero;stroke:none"
       d="m 136.75781,87.339844 h 3.25391 c 0.85156,0 1.9375,0.05859 2.66797,-0.441406 0.67578,-0.441407 1.05859,-1.261719 1.05859,-2.082032 0,-0.761718 -0.46875,-1.554687 -1.14453,-1.9375 C 141.91797,82.5 140.98047,82.5 140.21875,82.5 h -3.46094 z m 0,-8.417969 h 3.19531 c 0.82032,0 1.78907,0.05859 2.49219,-0.46875 0.5586,-0.414063 0.85156,-1.144531 0.85156,-1.820313 0,-0.730468 -0.35156,-1.4375 -0.99609,-1.816406 -0.67578,-0.382812 -1.90625,-0.292968 -2.69922,-0.292968 h -2.84375 z m 4.3086,-7.976563 c 1.58593,0 3.22656,0 4.60546,0.878907 1.61329,1.027343 2.46485,2.492187 2.46485,4.398437 0,2.289063 -1.52735,3.8125 -3.63672,4.339844 v 0.05859 c 2.49219,0.5 4.19141,2.40625 4.19141,5.015625 0,1.761719 -1.05469,3.316406 -2.46094,4.339843 -1.46875,1.085938 -3.4336,1.085938 -5.16406,1.085938 h -9 V 70.945312 h 9"
       id="path94"
       inkscape:connector-curvature="0" />
    <path
       style="fill:#021e28;fill-opacity:1;fill-rule:nonzero;stroke:none"
       d="m 157.49609,74.84375 v 4.078125 h 7.625 v 3.78125 h -7.625 v 4.457031 h 9.67578 V 91.0625 H 152.80469 V 70.945312 h 14.36718 v 3.898438 h -9.67578"
       id="path96"
       inkscape:connector-curvature="0" />
    <path
       style="fill:#021e28;fill-opacity:1;fill-rule:nonzero;stroke:none"
       d="m 176.0625,79.65625 h 2.58203 c 0.96484,0 2.02344,0.08594 2.87109,-0.414062 0.76172,-0.46875 1.17579,-1.40625 1.17579,-2.285157 0,-0.792969 -0.46875,-1.644531 -1.14454,-2.054687 -0.79296,-0.496094 -2.14062,-0.378906 -3.01953,-0.378906 h -2.46484 z m 0,11.40625 h -4.69141 V 70.945312 h 8.47266 c 1.78906,0 3.60937,0.02734 5.16406,1.023438 1.64063,1.085938 2.55078,3.050781 2.55078,5.015625 0,2.289063 -1.32031,4.402344 -3.49218,5.191406 l 3.72656,8.886719 h -5.21875 l -3.08203,-7.945312 H 176.0625 V 91.0625"
       id="path98"
       inkscape:connector-curvature="0" />
    <path
       style="fill:#021e28;fill-opacity:1;fill-rule:nonzero;stroke:none"
       d="m 196.76953,80.417969 6.30469,-9.472657 h 4.51953 l -4.83984,7.183594 6.04296,12.933594 h -5.1914 l -3.98828,-8.710938 -2.84766,4.078126 V 91.0625 h -4.57422 V 70.945312 h 4.57422 v 9.472657"
       id="path100"
       inkscape:connector-curvature="0" />
    <path
       style="fill:#021e28;fill-opacity:1;fill-rule:nonzero;stroke:none"
       d="m 217.03906,74.84375 v 4.078125 h 7.625 v 3.78125 h -7.625 v 4.457031 h 9.67969 V 91.0625 H 212.34766 V 70.945312 h 14.37109 v 3.898438 h -9.67969"
       id="path102"
       inkscape:connector-curvature="0" />
    <path
       style="fill:#021e28;fill-opacity:1;fill-rule:nonzero;stroke:none"
       d="M 243.49609,87.074219 V 91.0625 H 230.71094 V 70.945312 h 4.6914 v 16.128907 h 8.09375"
       id="path104"
       inkscape:connector-curvature="0" />
    <path
       style="fill:#021e28;fill-opacity:1;fill-rule:nonzero;stroke:none"
       d="m 251.65234,74.84375 v 4.078125 h 7.625 v 3.78125 h -7.625 v 4.457031 h 9.67578 V 91.0625 H 246.96094 V 70.945312 h 14.36718 v 3.898438 h -9.67578"
       id="path106"
       inkscape:connector-curvature="0" />
    <path
       style="fill:#021e28;fill-opacity:1;fill-rule:nonzero;stroke:none"
       d="M 274.79687,82.585938 V 91.0625 h -4.69531 v -8.476562 l -6.36328,-11.640626 h 5.45703 l 3.8711,7.652344 3.8125,-7.652344 h 4.22265 l -6.30469,11.640626"
       id="path108"
       inkscape:connector-curvature="0" />
    <path
       style="fill:#021e28;fill-opacity:1;fill-rule:nonzero;stroke:none"
       d="M 307.44141,87.074219 V 91.0625 H 294.65234 V 70.945312 h 4.69532 v 16.128907 h 8.09375"
       id="path110"
       inkscape:connector-curvature="0" />
    <path
       style="fill:#021e28;fill-opacity:1;fill-rule:nonzero;stroke:none"
       d="m 321.25781,83.234375 -2.14062,-7.070313 -2.14063,7.070313 z m 7.39063,7.828125 h -5.07422 l -1.23047,-4.132812 h -6.51172 l -1.26172,4.132812 h -4.13672 l 6.45313,-20.117188 h 5.45703 l 6.30469,20.117188"
       id="path112"
       inkscape:connector-curvature="0" />
    <path
       style="fill:#021e28;fill-opacity:1;fill-rule:nonzero;stroke:none"
       d="m 337.09766,87.339844 h 3.2539 c 0.85156,0 1.9375,0.05859 2.67188,-0.441406 0.67187,-0.441407 1.05468,-1.261719 1.05468,-2.082032 0,-0.761718 -0.46875,-1.554687 -1.14453,-1.9375 C 342.25781,82.5 341.32031,82.5 340.55859,82.5 h -3.46093 z m 0,-8.417969 h 3.19531 c 0.82031,0 1.78906,0.05859 2.49219,-0.46875 0.55859,-0.414063 0.85156,-1.144531 0.85156,-1.820313 0,-0.730468 -0.35156,-1.4375 -0.9961,-1.816406 -0.67578,-0.382812 -1.90625,-0.292968 -2.69921,-0.292968 h -2.84375 z m 4.30859,-7.976563 c 1.58594,0 3.22656,0 4.60547,0.878907 1.61328,1.027343 2.46484,2.492187 2.46484,4.398437 0,2.289063 -1.52734,3.8125 -3.63672,4.339844 v 0.05859 c 2.49219,0.5 4.19141,2.40625 4.19141,5.015625 0,1.761719 -1.05469,3.316406 -2.46094,4.339843 -1.46484,1.085938 -3.42969,1.085938 -5.16406,1.085938 h -9.00391 V 70.945312 h 9.00391"
       id="path114"
       inkscape:connector-curvature="0" />
  </g>
</svg>
