<?xml version="1.0" encoding="UTF-8" standalone="no"?>
<svg
   xmlns:dc="http://purl.org/dc/elements/1.1/"
   xmlns:cc="http://creativecommons.org/ns#"
   xmlns:rdf="http://www.w3.org/1999/02/22-rdf-syntax-ns#"
   xmlns:svg="http://www.w3.org/2000/svg"
   xmlns="http://www.w3.org/2000/svg"
   xmlns:sodipodi="http://sodipodi.sourceforge.net/DTD/sodipodi-0.dtd"
   xmlns:inkscape="http://www.inkscape.org/namespaces/inkscape"
   width="368.88pt"
   height="111.25pt"
   viewBox="0 0 368.88 111.25"
   version="1.2"
   id="svg49"
   sodipodi:docname="5_BL_Horiz_Tile.eps"
   inkscape:version="0.92.4 (5da689c313, 2019-01-14)">
  <metadata
     id="metadata55">
    <rdf:RDF>
      <cc:Work
         rdf:about="">
        <dc:format>image/svg+xml</dc:format>
        <dc:type
           rdf:resource="http://purl.org/dc/dcmitype/StillImage" />
        <dc:title></dc:title>
      </cc:Work>
    </rdf:RDF>
  </metadata>
  <defs
     id="defs53" />
  <sodipodi:namedview
     pagecolor="#ffffff"
     bordercolor="#666666"
     borderopacity="1"
     objecttolerance="10"
     gridtolerance="10"
     guidetolerance="10"
     inkscape:pageopacity="0"
     inkscape:pageshadow="2"
     inkscape:window-width="1920"
     inkscape:window-height="995"
     id="namedview51"
     showgrid="false"
     inkscape:zoom="0.92298826"
     inkscape:cx="514.06368"
     inkscape:cy="-92.491198"
     inkscape:window-x="0"
     inkscape:window-y="28"
     inkscape:window-maximized="1"
     inkscape:current-layer="svg49" />
  <g
     id="surface321">
    <path
       style=" stroke:none;fill-rule:nonzero;fill:rgb(8.456421%,17.684937%,21.600342%);fill-opacity:1;"
       d="M 19.925781 20.160156 L 119.925781 20.160156 L 119.925781 91.109375 L 19.925781 91.109375 L 19.925781 20.160156 "
       id="path2" />
    <path
       style=" stroke:none;fill-rule:nonzero;fill:rgb(100%,100%,100%);fill-opacity:1;"
       d="M 106.71875 91.132812 L 104.8125 91.132812 L 104.8125 57.4375 L 99.804688 50.628906 L 94.796875 57.4375 L 94.796875 91.132812 L 92.890625 91.132812 L 92.890625 56.8125 L 99.804688 47.410156 L 106.71875 56.8125 L 106.71875 91.132812 "
       id="path4" />
    <path
       style=" stroke:none;fill-rule:nonzero;fill:rgb(100%,100%,100%);fill-opacity:1;"
       d="M 32.992188 65.582031 L 36.367188 65.582031 L 36.367188 64.316406 L 29.875 64.316406 L 29.875 68.960938 L 32.992188 68.960938 L 32.992188 65.582031 "
       id="path6" />
    <path
       style=" stroke:none;fill-rule:nonzero;fill:rgb(100%,100%,100%);fill-opacity:1;"
       d="M 41.941406 65.582031 L 45.320312 65.582031 L 45.320312 64.316406 L 38.824219 64.316406 L 38.824219 68.960938 L 41.941406 68.960938 L 41.941406 65.582031 "
       id="path8" />
    <path
       style=" stroke:none;fill-rule:nonzero;fill:rgb(100%,100%,100%);fill-opacity:1;"
       d="M 50.894531 65.582031 L 54.269531 65.582031 L 54.269531 64.316406 L 47.777344 64.316406 L 47.777344 68.960938 L 50.894531 68.960938 L 50.894531 65.582031 "
       id="path10" />
    <path
       style=" stroke:none;fill-rule:nonzero;fill:rgb(100%,100%,100%);fill-opacity:1;"
       d="M 59.84375 65.582031 L 63.21875 65.582031 L 63.21875 64.316406 L 56.726562 64.316406 L 56.726562 68.960938 L 59.84375 68.960938 L 59.84375 65.582031 "
       id="path12" />
    <path
       style=" stroke:none;fill-rule:nonzero;fill:rgb(100%,100%,100%);fill-opacity:1;"
       d="M 68.792969 65.582031 L 72.167969 65.582031 L 72.167969 64.316406 L 65.675781 64.316406 L 65.675781 68.960938 L 68.792969 68.960938 L 68.792969 65.582031 "
       id="path14" />
    <path
       style=" stroke:none;fill-rule:nonzero;fill:rgb(100%,100%,100%);fill-opacity:1;"
       d="M 77.742188 65.582031 L 81.117188 65.582031 L 81.117188 64.316406 L 74.625 64.316406 L 74.625 68.960938 L 77.742188 68.960938 L 77.742188 65.582031 "
       id="path16" />
    <path
       style=" stroke:none;fill-rule:nonzero;fill:rgb(100%,100%,100%);fill-opacity:1;"
       d="M 54.605469 37.058594 L 53.757812 36.570312 L 52.894531 37.070312 L 45.824219 40.894531 L 45.824219 43.53125 L 53.757812 39.238281 L 61.695312 43.53125 L 61.695312 40.894531 L 54.605469 37.058594 "
       id="path18" />
    <path
       style=" stroke:none;fill-rule:nonzero;fill:rgb(100%,100%,100%);fill-opacity:1;"
       d="M 81.957031 56.976562 C 74.132812 49.4375 63.863281 45.292969 52.976562 45.292969 C 44.433594 45.292969 36.21875 47.851562 29.222656 52.699219 L 28.1875 53.417969 L 28.1875 56.25 L 30.542969 54.605469 C 37.152344 50.027344 44.910156 47.609375 52.976562 47.609375 C 63.410156 47.609375 73.242188 51.640625 80.667969 58.960938 C 80.886719 59.175781 81.175781 59.296875 81.480469 59.296875 L 85.59375 59.296875 L 85.59375 91.132812 L 87.914062 91.132812 L 87.914062 56.976562 L 81.957031 56.976562 "
       id="path20" />
    <path
       style=" stroke:none;fill-rule:nonzero;fill:rgb(100%,100%,100%);fill-opacity:1;"
       d="M 99.175781 68.960938 L 97.097656 68.960938 L 97.097656 61.046875 L 99.175781 61.046875 L 99.175781 68.960938 "
       id="path22" />
    <path
       style=" stroke:none;fill-rule:nonzero;fill:rgb(100%,100%,100%);fill-opacity:1;"
       d="M 102.714844 68.960938 L 100.636719 68.960938 L 100.636719 61.046875 L 102.714844 61.046875 L 102.714844 68.960938 "
       id="path24" />
    <path
       style=" stroke:none;fill-rule:nonzero;fill:rgb(8.456421%,17.684937%,21.600342%);fill-opacity:1;"
       d="M 136.554688 87.382812 L 139.8125 87.382812 C 140.660156 87.382812 141.746094 87.441406 142.480469 86.945312 C 143.15625 86.503906 143.535156 85.679688 143.535156 84.859375 C 143.535156 84.097656 143.066406 83.304688 142.394531 82.925781 C 141.71875 82.542969 140.78125 82.542969 140.015625 82.542969 L 136.554688 82.542969 Z M 136.554688 78.964844 L 139.753906 78.964844 C 140.574219 78.964844 141.542969 79.023438 142.246094 78.496094 C 142.804688 78.085938 143.097656 77.351562 143.097656 76.679688 C 143.097656 75.945312 142.742188 75.242188 142.097656 74.859375 C 141.425781 74.476562 140.191406 74.566406 139.402344 74.566406 L 136.554688 74.566406 Z M 140.867188 70.988281 C 142.449219 70.988281 144.09375 70.988281 145.472656 71.867188 C 147.085938 72.894531 147.933594 74.359375 147.933594 76.269531 C 147.933594 78.554688 146.410156 80.082031 144.300781 80.609375 L 144.300781 80.667969 C 146.792969 81.164062 148.492188 83.070312 148.492188 85.679688 C 148.492188 87.441406 147.4375 88.996094 146.027344 90.023438 C 144.5625 91.105469 142.597656 91.105469 140.867188 91.105469 L 131.863281 91.105469 L 131.863281 70.988281 L 140.867188 70.988281 "
       id="path26" />
    <path
       style=" stroke:none;fill-rule:nonzero;fill:rgb(8.456421%,17.684937%,21.600342%);fill-opacity:1;"
       d="M 157.292969 74.890625 L 157.292969 78.964844 L 164.917969 78.964844 L 164.917969 82.75 L 157.292969 82.75 L 157.292969 87.207031 L 166.972656 87.207031 L 166.972656 91.105469 L 152.601562 91.105469 L 152.601562 70.988281 L 166.972656 70.988281 L 166.972656 74.890625 L 157.292969 74.890625 "
       id="path28" />
    <path
       style=" stroke:none;fill-rule:nonzero;fill:rgb(8.456421%,17.684937%,21.600342%);fill-opacity:1;"
       d="M 175.863281 79.699219 L 178.441406 79.699219 C 179.410156 79.699219 180.464844 79.785156 181.316406 79.289062 C 182.078125 78.820312 182.488281 77.882812 182.488281 77 C 182.488281 76.210938 182.019531 75.359375 181.347656 74.949219 C 180.554688 74.449219 179.203125 74.566406 178.324219 74.566406 L 175.863281 74.566406 Z M 175.863281 91.105469 L 171.167969 91.105469 L 171.167969 70.988281 L 179.644531 70.988281 C 181.433594 70.988281 183.253906 71.019531 184.804688 72.015625 C 186.449219 73.101562 187.359375 75.066406 187.359375 77.03125 C 187.359375 79.316406 186.039062 81.429688 183.867188 82.222656 L 187.59375 91.105469 L 182.371094 91.105469 L 179.292969 83.160156 L 175.863281 83.160156 L 175.863281 91.105469 "
       id="path30" />
    <path
       style=" stroke:none;fill-rule:nonzero;fill:rgb(8.456421%,17.684937%,21.600342%);fill-opacity:1;"
       d="M 196.570312 80.460938 L 202.875 70.988281 L 207.390625 70.988281 L 202.554688 78.171875 L 208.59375 91.105469 L 203.402344 91.105469 L 199.414062 82.398438 L 196.570312 86.472656 L 196.570312 91.105469 L 191.996094 91.105469 L 191.996094 70.988281 L 196.570312 70.988281 L 196.570312 80.460938 "
       id="path32" />
    <path
       style=" stroke:none;fill-rule:nonzero;fill:rgb(8.456421%,17.684937%,21.600342%);fill-opacity:1;"
       d="M 216.839844 74.890625 L 216.839844 78.964844 L 224.464844 78.964844 L 224.464844 82.75 L 216.839844 82.75 L 216.839844 87.207031 L 226.515625 87.207031 L 226.515625 91.105469 L 212.144531 91.105469 L 212.144531 70.988281 L 226.515625 70.988281 L 226.515625 74.890625 L 216.839844 74.890625 "
       id="path34" />
    <path
       style=" stroke:none;fill-rule:nonzero;fill:rgb(8.456421%,17.684937%,21.600342%);fill-opacity:1;"
       d="M 243.296875 87.117188 L 243.296875 91.105469 L 230.507812 91.105469 L 230.507812 70.988281 L 235.199219 70.988281 L 235.199219 87.117188 L 243.296875 87.117188 "
       id="path36" />
    <path
       style=" stroke:none;fill-rule:nonzero;fill:rgb(8.456421%,17.684937%,21.600342%);fill-opacity:1;"
       d="M 251.449219 74.890625 L 251.449219 78.964844 L 259.074219 78.964844 L 259.074219 82.75 L 251.449219 82.75 L 251.449219 87.207031 L 261.128906 87.207031 L 261.128906 91.105469 L 246.757812 91.105469 L 246.757812 70.988281 L 261.128906 70.988281 L 261.128906 74.890625 L 251.449219 74.890625 "
       id="path38" />
    <path
       style=" stroke:none;fill-rule:nonzero;fill:rgb(8.456421%,17.684937%,21.600342%);fill-opacity:1;"
       d="M 274.59375 82.632812 L 274.59375 91.105469 L 269.902344 91.105469 L 269.902344 82.632812 L 263.535156 70.988281 L 268.992188 70.988281 L 272.863281 78.644531 L 276.675781 70.988281 L 280.898438 70.988281 L 274.59375 82.632812 "
       id="path40" />
    <path
       style=" stroke:none;fill-rule:nonzero;fill:rgb(8.456421%,17.684937%,21.600342%);fill-opacity:1;"
       d="M 307.238281 87.117188 L 307.238281 91.105469 L 294.453125 91.105469 L 294.453125 70.988281 L 299.144531 70.988281 L 299.144531 87.117188 L 307.238281 87.117188 "
       id="path42" />
    <path
       style=" stroke:none;fill-rule:nonzero;fill:rgb(8.456421%,17.684937%,21.600342%);fill-opacity:1;"
       d="M 321.054688 83.277344 L 318.914062 76.210938 L 316.773438 83.277344 Z M 328.445312 91.105469 L 323.371094 91.105469 L 322.140625 86.972656 L 315.628906 86.972656 L 314.367188 91.105469 L 310.234375 91.105469 L 316.683594 70.988281 L 322.140625 70.988281 L 328.445312 91.105469 "
       id="path44" />
    <path
       style=" stroke:none;fill-rule:nonzero;fill:rgb(8.456421%,17.684937%,21.600342%);fill-opacity:1;"
       d="M 336.894531 87.382812 L 340.152344 87.382812 C 341 87.382812 342.085938 87.441406 342.820312 86.945312 C 343.492188 86.503906 343.875 85.679688 343.875 84.859375 C 343.875 84.097656 343.40625 83.304688 342.730469 82.925781 C 342.058594 82.542969 341.117188 82.542969 340.355469 82.542969 L 336.894531 82.542969 Z M 336.894531 78.964844 L 340.09375 78.964844 C 340.914062 78.964844 341.882812 79.023438 342.585938 78.496094 C 343.140625 78.085938 343.4375 77.351562 343.4375 76.679688 C 343.4375 75.945312 343.082031 75.242188 342.4375 74.859375 C 341.765625 74.476562 340.53125 74.566406 339.742188 74.566406 L 336.894531 74.566406 Z M 341.207031 70.988281 C 342.789062 70.988281 344.433594 70.988281 345.8125 71.867188 C 347.425781 72.894531 348.273438 74.359375 348.273438 76.269531 C 348.273438 78.554688 346.75 80.082031 344.636719 80.609375 L 344.636719 80.667969 C 347.132812 81.164062 348.832031 83.070312 348.832031 85.679688 C 348.832031 87.441406 347.777344 88.996094 346.367188 90.023438 C 344.902344 91.105469 342.9375 91.105469 341.207031 91.105469 L 332.203125 91.105469 L 332.203125 70.988281 L 341.207031 70.988281 "
       id="path46" />
  </g>
</svg>
